<?xml version="1.0" standalone="no"?>
<!DOCTYPE svg PUBLIC "-//W3C//DTD SVG 20010904//EN"
 "http://www.w3.org/TR/2001/REC-SVG-20010904/DTD/svg10.dtd">
<svg version="1.0" xmlns="http://www.w3.org/2000/svg"
 width="722.000000pt" height="722.000000pt" viewBox="0 0 722.000000 722.000000"
 preserveAspectRatio="xMidYMid meet">
<metadata>
Created by potrace 1.14, written by Peter Selinger 2001-2017
</metadata>
<g transform="translate(0.000000,722.000000) scale(0.100000,-0.100000)"
fill="#000000" stroke="none">
<path d="M3609 7036 c-2 -2 -47 -7 -99 -11 -51 -3 -96 -8 -100 -10 -3 -1 -32
-6 -65 -9 -33 -4 -69 -9 -80 -12 -43 -9 -82 -14 -140 -20 -69 -6 -129 -13
-165 -18 -14 -2 -47 -7 -75 -11 -27 -4 -59 -9 -70 -11 -11 -2 -47 -9 -80 -15
-107 -19 -394 -97 -410 -111 -5 -4 -15 -8 -23 -8 -31 0 -286 -107 -437 -184
-127 -64 -322 -178 -390 -228 -71 -52 -235 -176 -250 -189 -11 -10 -45 -39
-75 -66 -135 -119 -337 -334 -422 -448 -4 -5 -21 -26 -38 -45 -16 -19 -30 -38
-30 -43 0 -4 -11 -20 -25 -35 -14 -15 -25 -32 -25 -39 0 -7 -3 -13 -7 -13 -5
0 -26 -28 -47 -63 -21 -34 -46 -73 -56 -87 -9 -14 -27 -45 -41 -70 -13 -25
-26 -47 -29 -50 -6 -6 -122 -241 -144 -292 -9 -21 -22 -53 -30 -70 -23 -52
-84 -220 -92 -253 -4 -16 -9 -34 -13 -40 -3 -5 -6 -14 -8 -20 -1 -5 -4 -19 -7
-30 -3 -11 -10 -40 -17 -65 -6 -25 -13 -52 -16 -60 -3 -8 -7 -25 -9 -37 -1
-13 -6 -33 -10 -45 -5 -13 -9 -25 -9 -28 -1 -6 -15 -85 -21 -120 -2 -14 -6
-36 -9 -50 -9 -43 -24 -152 -32 -240 -9 -96 -9 -516 0 -600 3 -30 8 -84 12
-120 3 -36 8 -72 11 -79 3 -8 7 -35 10 -60 3 -26 14 -86 25 -136 11 -49 22
-101 25 -115 8 -38 51 -190 68 -238 8 -23 16 -46 17 -50 10 -46 123 -321 172
-417 60 -122 138 -259 149 -263 4 -2 8 -8 8 -14 0 -23 193 -296 269 -380 19
-21 41 -48 49 -60 9 -12 23 -29 31 -38 9 -9 28 -30 42 -46 45 -49 241 -237
292 -279 27 -22 57 -47 67 -56 10 -8 31 -24 45 -35 15 -10 34 -25 42 -33 25
-24 270 -189 303 -204 8 -4 29 -16 45 -26 76 -49 313 -164 440 -214 169 -66
177 -69 190 -73 6 -2 64 -19 130 -38 66 -19 131 -37 145 -40 14 -3 66 -14 115
-25 50 -11 110 -22 136 -25 25 -3 52 -7 60 -10 7 -3 41 -8 74 -10 33 -3 87 -9
120 -13 124 -15 620 -7 709 12 12 2 41 7 66 10 49 6 94 13 125 20 19 4 53 8
180 20 33 3 69 8 80 10 11 3 40 7 65 10 86 10 134 19 248 46 48 11 92 22 97
23 6 1 16 5 23 9 6 5 12 6 12 3 0 -3 11 -1 25 4 14 5 36 12 48 14 12 3 56 16
97 31 41 14 82 28 90 30 25 6 264 106 285 119 11 7 41 21 68 31 26 10 47 21
47 26 0 4 14 10 30 14 17 4 30 10 30 15 0 5 10 12 22 16 12 3 50 24 85 45 35
22 67 39 72 39 5 0 11 3 13 8 2 4 55 41 118 84 63 42 128 88 143 102 15 14 30
26 32 26 3 0 17 10 32 23 191 159 371 337 493 487 25 30 47 57 50 60 13 11
139 190 182 256 62 97 151 251 173 302 11 23 22 42 27 42 4 0 8 7 8 16 0 9 6
28 14 42 22 40 64 136 68 152 2 8 5 17 8 20 18 18 122 341 155 480 30 128 34
145 41 200 3 25 7 47 9 50 2 3 6 28 9 55 4 28 9 66 11 85 26 184 26 682 1 807
-3 12 -7 48 -11 80 -8 79 -50 285 -81 396 -14 51 -27 99 -29 107 -2 8 -17 56
-35 105 -17 50 -32 95 -34 100 -1 6 -8 21 -13 35 -6 14 -24 57 -39 95 -35 87
-140 301 -164 335 -10 14 -17 27 -17 30 1 5 -16 33 -70 117 -18 29 -33 57 -33
62 0 5 -4 11 -8 13 -5 2 -31 37 -59 78 -28 41 -59 85 -70 98 -111 141 -154
191 -238 280 -118 125 -208 210 -310 291 -38 31 -76 61 -83 68 -7 6 -49 38
-95 69 -45 32 -84 61 -87 64 -19 21 -270 165 -400 229 -224 111 -544 226 -740
265 -14 2 -50 10 -80 16 -81 17 -89 18 -165 31 -38 6 -92 13 -120 15 -27 2
-61 6 -75 10 -27 6 -525 16 -531 10z"/>
</g>
</svg>
